<svg width="1256" height="400" viewBox="0 0 1256 400" fill="none" xmlns="http://www.w3.org/2000/svg">
<g clip-path="url(#clip0_411_2)">
<rect width="1256" height="400" fill="white"/>
<rect width="2048" height="200" fill="#0056B9"/>
<rect y="200" width="2048" height="200" fill="#FFD800"/>
<path d="M124.784 177.536C116.933 177.536 110.277 176.213 104.816 173.568C99.3547 170.837 94.704 167.339 90.864 163.072L103.664 150.144C109.723 156.971 117.189 160.384 126.064 160.384C130.843 160.384 134.384 159.403 136.688 157.44C138.992 155.477 140.144 152.875 140.144 149.632C140.144 147.157 139.461 145.109 138.096 143.488C136.731 141.781 133.957 140.629 129.776 140.032L120.944 138.88C111.472 137.685 104.517 134.827 100.08 130.304C95.728 125.781 93.552 119.765 93.552 112.256C93.552 108.245 94.32 104.576 95.856 101.248C97.392 97.92 99.568 95.0613 102.384 92.672C105.285 90.2827 108.784 88.448 112.88 87.168C117.061 85.8027 121.797 85.12 127.088 85.12C133.829 85.12 139.76 86.1867 144.88 88.32C150 90.4533 154.395 93.568 158.064 97.664L145.136 110.72C143.003 108.245 140.4 106.24 137.328 104.704C134.341 103.083 130.544 102.272 125.936 102.272C121.584 102.272 118.341 103.04 116.208 104.576C114.075 106.112 113.008 108.245 113.008 110.976C113.008 114.048 113.819 116.267 115.44 117.632C117.147 118.997 119.877 119.979 123.632 120.576L132.464 121.984C141.68 123.435 148.507 126.293 152.944 130.56C157.381 134.741 159.6 140.715 159.6 148.48C159.6 152.747 158.832 156.672 157.296 160.256C155.76 163.84 153.499 166.912 150.512 169.472C147.611 172.032 143.984 174.037 139.632 175.488C135.28 176.853 130.331 177.536 124.784 177.536ZM209.979 103.936V176H190.523V103.936H166.331V86.656H234.171V103.936H209.979ZM294.146 176L287.746 154.752H257.922L251.522 176H231.81L261.25 86.656H285.314L314.37 176H294.146ZM273.026 104.32H272.386L262.53 138.24H283.01L273.026 104.32ZM353.995 133.76L345.419 115.84H345.035V176H326.731V86.656H347.979L372.427 128.896L381.003 146.816H381.387V86.656H399.691V176H378.443L353.995 133.76ZM419.356 86.656H453.02C458.908 86.656 464.284 87.5947 469.148 89.472C474.012 91.3493 478.151 94.1653 481.564 97.92C484.977 101.589 487.623 106.24 489.5 111.872C491.377 117.419 492.316 123.904 492.316 131.328C492.316 138.752 491.377 145.28 489.5 150.912C487.623 156.459 484.977 161.109 481.564 164.864C478.151 168.533 474.012 171.307 469.148 173.184C464.284 175.061 458.908 176 453.02 176H419.356V86.656ZM453.02 158.72C458.823 158.72 463.388 157.099 466.716 153.856C470.044 150.613 471.708 145.408 471.708 138.24V124.416C471.708 117.248 470.044 112.043 466.716 108.8C463.388 105.557 458.823 103.936 453.02 103.936H438.812V158.72H453.02ZM552.936 176L532.712 86.656H551.912L560.36 129.536L565.096 154.368H565.48L571.112 129.536L580.968 86.656H602.216L612.2 129.536L617.704 154.368H618.088L622.824 129.536L631.4 86.656H649.832L629.096 176H606.952L595.688 127.616L591.336 108.032H590.952L586.472 127.616L575.208 176H552.936ZM659.9 176V160.512H671.42V102.144H659.9V86.656H702.396V102.144H690.876V160.512H702.396V176H659.9ZM755.354 103.936V176H735.898V103.936H711.706V86.656H779.546V103.936H755.354ZM846.36 139.392H812.312V176H792.856V86.656H812.312V122.24H846.36V86.656H865.816V176H846.36V139.392Z" fill="#FFD800"/>
<path d="M114.288 230.656V285.44C114.288 291.755 115.525 296.491 118 299.648C120.475 302.72 124.613 304.256 130.416 304.256C136.219 304.256 140.357 302.72 142.832 299.648C145.307 296.491 146.544 291.755 146.544 285.44V230.656H165.488V283.392C165.488 289.963 164.848 295.68 163.568 300.544C162.373 305.323 160.368 309.291 157.552 312.448C154.736 315.52 151.109 317.824 146.672 319.36C142.235 320.811 136.816 321.536 130.416 321.536C124.016 321.536 118.597 320.811 114.16 319.36C109.723 317.824 106.096 315.52 103.28 312.448C100.464 309.291 98.416 305.323 97.136 300.544C95.9413 295.68 95.344 289.963 95.344 283.392V230.656H114.288ZM215.835 281.088L204.187 295.168V320H184.731V230.656H204.187V273.152H204.955L217.627 255.872L237.723 230.656H259.739L229.659 267.392L262.427 320H239.515L215.835 281.088ZM293.312 320H273.856V230.656H316.224C320.32 230.656 324.032 231.339 327.36 232.704C330.688 234.069 333.504 236.032 335.808 238.592C338.197 241.067 340.032 244.053 341.312 247.552C342.592 251.051 343.232 254.933 343.232 259.2C343.232 265.259 341.867 270.549 339.136 275.072C336.491 279.595 332.437 282.88 326.976 284.928L344.512 320H322.88L307.264 287.232H293.312V320ZM313.792 270.848C316.693 270.848 318.955 270.123 320.576 268.672C322.283 267.136 323.136 264.917 323.136 262.016V256.384C323.136 253.483 322.283 251.307 320.576 249.856C318.955 248.32 316.693 247.552 313.792 247.552H293.312V270.848H313.792ZM415.146 320L408.746 298.752H378.922L372.522 320H352.81L382.25 230.656H406.314L435.37 320H415.146ZM394.026 248.32H393.386L383.53 282.24H404.01L394.026 248.32ZM444.275 320V304.512H455.795V246.144H444.275V230.656H486.771V246.144H475.251V304.512H486.771V320H444.275ZM530.245 277.76L521.669 259.84H521.285V320H502.981V230.656H524.229L548.677 272.896L557.253 290.816H557.637V230.656H575.941V320H554.693L530.245 277.76ZM595.606 320V230.656H656.406V247.936H615.062V266.24H650.518V283.392H615.062V302.72H656.406V320H595.606Z" fill="#0056B9"/>
</g>
<defs>
<clipPath id="clip0_411_2">
<rect width="1256" height="400" fill="white"/>
</clipPath>
</defs>
</svg>
